<svg xmlns="http://www.w3.org/2000/svg" viewBox="0 0 171 76"><path d="M38 0h95a38 38 0 0 1 38 38 38 38 0 0 1-38 38H38A38 38 0 0 1 0 38 38 38 0 0 1 38 0z" fill="#00b3e3"/><path d="M64.038 30.9q0 6.129-3.83 9.378t-10.9 3.247h-3.454v13.5H37.8V19.05h12.133q6.907 0 10.505 2.976t3.6 8.874zm-18.184 6.022H48.5a8.814 8.814 0 0 0 5.559-1.47 5.135 5.135 0 0 0 1.841-4.271A5.266 5.266 0 0 0 54.36 27a7.222 7.222 0 0 0-4.843-1.351h-3.663zm33.406 5.533v14.573h-8.053V19.05h11.066q7.743 0 11.456 2.82t3.715 8.558a10.062 10.062 0 0 1-1.845 5.96 12.157 12.157 0 0 1-5.221 4.093q8.573 12.809 11.17 16.547h-8.936l-9.066-14.573zm0-6.546h2.6q3.818 0 5.637-1.273a4.544 4.544 0 0 0 1.818-4 4.156 4.156 0 0 0-1.859-3.845 11.266 11.266 0 0 0-5.756-1.143h-2.44zm61.54 2.078q0 9.429-4.676 14.495t-13.4 5.065q-8.729 0-13.4-5.065t-4.676-14.547q0-9.48 4.687-14.484t13.445-5q8.755 0 13.393 5.039t4.627 14.497zm-27.717 0q0 6.363 2.415 9.585t7.222 3.221q9.635 0 9.637-12.806 0-12.831-9.585-12.832-4.8 0-7.248 3.232t-2.442 9.6z" fill="#fff"/></svg>